# xmcd CD database file
#
# Track frame offsets:
#	150
#	20484
#	41702
#	60419
#	88174
#	102567
#	114614
#	134369
#	152722
#	169252
#	184624
#	199133
#	217839
#
# Disc length: 3137 seconds
#
# Revision: 0
# Processed by: cddbd v1.5.1PL2 Copyright (c) Steve Scherf et al.
# Submitted via: Feurio! 1.68 - http://www.feurio.com
#
DISCID=b40c3f0d
DTITLE=Glamourpuss - Bluesman's Prayer
DYEAR=2005
DGENRE=Blues
TTITLE0=Leaving On Sunday
TTITLE1=Gravel On The Road
TTITLE2=Street Walker
TTITLE3=As Blue As It Gets
TTITLE4=Walk Away
TTITLE5=Tu Peux Cogner
TTITLE6=Get Your Own
TTITLE7=Addiction
TTITLE8=Ain't No News
TTITLE9=Can't Win For Losin'
TTITLE10=Drivin' The 401
TTITLE11=Bluesman's Prayer
TTITLE12=Georgia On My Mind
EXTD=
EXTT0=
EXTT1=
EXTT2=
EXTT3=
EXTT4=
EXTT5=
EXTT6=
EXTT7=
EXTT8=
EXTT9=
EXTT10=
EXTT11=
EXTT12=
PLAYORDER=
